<svg xmlns="http://www.w3.org/2000/svg" xmlns:xlink="http://www.w3.org/1999/xlink" width="2000" zoomAndPan="magnify" viewBox="0 0 1500 1499.999933" height="2000" preserveAspectRatio="xMidYMid meet" version="1.0"><defs><clipPath id="ace88b0136"><path d="M 541 454 L 1387.992188 454 L 1387.992188 1431.371094 L 541 1431.371094 Z M 541 454 " clip-rule="nonzero"/></clipPath><clipPath id="f6fb0d0765"><path d="M 112.242188 68.621094 L 953 68.621094 L 953 857 L 112.242188 857 Z M 112.242188 68.621094 " clip-rule="nonzero"/></clipPath></defs><g clip-path="url(#ace88b0136)"><path fill="#ffffff" d="M 973.628906 1082.601562 C 1096.867188 1049.277344 1196.742188 996.84375 1273.136719 925.445312 C 1349.46875 854.039062 1387.691406 761.648438 1387.691406 648.164062 L 1387.691406 454.992188 L 957.050781 455.804688 L 957.050781 664.199219 C 957.050781 724.265625 928.988281 772.285156 872.863281 808.339844 C 816.757812 844.34375 736.257812 862.367188 631.328125 862.367188 L 541.621094 862.367188 L 541.621094 1142.109375 L 802.722656 1431.464844 L 1299.59375 1431.464844 L 973.628906 1082.601562 " fill-opacity="1" fill-rule="nonzero"/></g><g clip-path="url(#f6fb0d0765)"><path fill="#ffffff" d="M 952.972656 452.339844 L 952.972656 68.660156 L 112.433594 68.660156 L 112.433594 856.191406 L 537.546875 856.191406 L 537.546875 452.339844 L 952.972656 452.339844 " fill-opacity="1" fill-rule="nonzero"/></g></svg>